<?xml version="1.0" ?><svg viewBox="0 0 58.56 85.57" xmlns="http://www.w3.org/2000/svg"><defs><style>.cls-1,.cls-3{fill:#5590cc;}.cls-1{opacity:0.25;}.cls-2{fill:#fff;stroke:#5590cc;stroke-linejoin:round;}</style></defs><title/><g data-name="Capa 2" id="Capa_2"><g data-name="Capa 1" id="Capa_1-2"><rect class="cls-1" data-name="&lt;Rectángulo&gt;" height="49.77" id="_Rectángulo_" transform="translate(48.73 -4.07) rotate(45)" width="31.64" x="13.46" y="31.91"/><rect class="cls-2" data-name="&lt;Rectángulo&gt;" height="49.77" id="_Rectángulo_2" transform="translate(34.61 -9.92) rotate(45)" width="31.64" x="13.46" y="11.94"/><rect class="cls-2" data-name="&lt;Rectángulo&gt;" height="49.77" id="_Rectángulo_3" transform="translate(31.95 -11.02) rotate(45)" width="31.64" x="13.46" y="8.17"/><polygon class="cls-2" data-name="&lt;Trazado&gt;" id="_Trazado_" points="19.05 54.25 0.5 35.69 35.69 0.5 58.06 22.87 26.64 54.29 19.05 54.25"/><line class="cls-2" data-name="&lt;Trazado&gt;" id="_Trazado_2" x1="39.77" x2="47.08" y1="21.47" y2="28.78"/><line class="cls-2" data-name="&lt;Trazado&gt;" id="_Trazado_3" x1="37.81" x2="45.12" y1="23.43" y2="30.74"/><line class="cls-2" data-name="&lt;Trazado&gt;" id="_Trazado_4" x1="35.84" x2="43.16" y1="25.39" y2="32.71"/><line class="cls-2" data-name="&lt;Trazado&gt;" id="_Trazado_5" x1="33.88" x2="41.2" y1="27.36" y2="34.67"/><line class="cls-2" data-name="&lt;Trazado&gt;" id="_Trazado_6" x1="31.66" x2="38.93" y1="29.57" y2="36.84"/><rect class="cls-3" data-name="&lt;Rectángulo&gt;" height="13.21" id="_Rectángulo_4" transform="translate(22.84 -15.22) rotate(45)" width="10.77" x="24.41" y="13.36"/><rect class="cls-3" data-name="&lt;Rectángulo&gt;" height="3.73" id="_Rectángulo_5" transform="translate(23.8 -25.41) rotate(45)" width="23.68" x="30.74" y="14.16"/><line class="cls-2" data-name="&lt;Trazado&gt;" id="_Trazado_7" x1="18.77" x2="26.08" y1="23.97" y2="31.28"/><line class="cls-2" data-name="&lt;Trazado&gt;" id="_Trazado_8" x1="16.81" x2="24.12" y1="25.93" y2="33.24"/><line class="cls-2" data-name="&lt;Trazado&gt;" id="_Trazado_9" x1="14.84" x2="22.16" y1="27.89" y2="35.21"/><line class="cls-2" data-name="&lt;Trazado&gt;" id="_Trazado_10" x1="12.88" x2="20.2" y1="29.86" y2="37.17"/><line class="cls-2" data-name="&lt;Trazado&gt;" id="_Trazado_11" x1="10.66" x2="14.91" y1="32.07" y2="36.32"/><rect class="cls-3" data-name="&lt;Rectángulo&gt;" height="13.21" id="_Rectángulo_6" transform="translate(37.24 -7.56) rotate(45)" width="10.5" x="22.49" y="34.57"/><polygon class="cls-2" data-name="&lt;Trazado&gt;" id="_Trazado_12" points="19.36 54.19 22.88 50.67 26.4 54.19 19.36 54.19"/></g></g></svg>